# xmcd
#
# Track frame offsets:
#	150
#	35957
#	103150
#	156495
#	179275
#	205170
#	259440
#	285725
#
# Disc length: 4193 seconds
#
# Revision: 3
# Processed by: cddbd v1.5.1PL0 Copyright (c) Steve Scherf et al.
# Submitted via: dBpowerAMP V4.0
#
DISCID=7e105f08
DTITLE=Miles Davis - The Columbia Years 1955-1985 (2)
DYEAR=1988
DGENRE=Jazz
TTITLE0=Bye Bye Blakbird
TTITLE1=My Funny Valentine
TTITLE2=Love for Sale
TTITLE3=Budo
TTITLE4=Miles
TTITLE5=Filles De Kilimanjaro
TTITLE6=Fran-Dance
TTITLE7=Seven Steps to Heaven
EXTD=
EXTT0=
EXTT1=
EXTT2=
EXTT3=
EXTT4=
EXTT5=
EXTT6=
EXTT7=
PLAYORDER=
